<?xml version="1.0" encoding="utf-8"?>
<!-- Generator: Adobe Illustrator 27.5.0, SVG Export Plug-In . SVG Version: 6.00 Build 0)  -->
<svg version="1.1" xmlns="http://www.w3.org/2000/svg" xmlns:xlink="http://www.w3.org/1999/xlink" x="0px" y="0px"
	 viewBox="0 0 500 500" style="enable-background:new 0 0 500 500;" xml:space="preserve">
<g id="OBJECTS">
	<g>
		<g>
			<g>
				<path style="fill:#00B5E8;" d="M351.077,202.178c0,18.69-7.57,35.61-19.82,47.86s-29.17,19.83-47.86,19.83h-37.34
					c-18.68,0-35.59,7.57-47.83,19.81c-12.24,12.24-19.81,29.15-19.81,47.83v-67.64c0-18.7,7.57-35.62,19.82-47.87
					s29.17-19.82,47.86-19.82H351.077z"/>
				<path style="fill:#FFFFFF;" d="M351.08,202.182c0,18.69-7.57,35.61-19.82,47.86c-1.24,1.24-2.53,2.44-3.87,3.58
					c11.44-12.12,18.44-28.46,18.44-46.44H240.85c-16.79,0-32.15,6.11-43.98,16.24c0.44-0.48,0.9-0.95,1.37-1.42
					c12.25-12.25,29.17-19.82,47.86-19.82H351.08z"/>
				<g>
					<path style="fill:#00B5E8;" d="M351.08,192.852H216.6c-2.94,0-5.83-0.2-8.67-0.55c-15.22-1.95-28.87-8.96-39.19-19.28
						c-12.25-12.25-19.82-29.17-19.82-47.87H283.4c18.69,0,35.61,7.58,47.86,19.83c4.17,4.17,7.8,8.88,10.77,14.02
						C347.79,168.962,351.08,180.523,351.08,192.852z"/>
				</g>
				<g>
					<path style="fill:#00B5E8;" d="M351.08,192.852H216.6c-2.94,0-5.83-0.2-8.67-0.55c-15.22-1.95-28.87-8.96-39.19-19.28
						c-12.25-12.25-19.82-29.17-19.82-47.87H283.4c18.69,0,35.61,7.58,47.86,19.83c4.17,4.17,7.8,8.88,10.77,14.02
						C347.79,168.962,351.08,180.523,351.08,192.852z"/>
				</g>
				<g>
					<g>
						<path style="fill:#FFFFFF;" d="M351.08,192.852h-4.77c-0.72-10.59-3.86-20.52-8.9-29.23c-2.97-5.14-6.6-9.85-10.77-14.02
							c-12.25-12.25-29.17-19.83-47.86-19.83h-129.7c-0.11-1.52-0.16-3.07-0.16-4.62H283.4c18.69,0,35.61,7.58,47.86,19.83
							c4.17,4.17,7.8,8.88,10.77,14.02C347.79,168.962,351.08,180.523,351.08,192.852z"/>
					</g>
				</g>
				<path style="fill:#017DC0;" d="M246.097,269.867v37.29c0,0.75-0.01,1.5-0.04,2.24c-0.32,10.08-2.86,19.61-7.13,28.11
					c-3.27,6.51-7.55,12.41-12.65,17.51c-12.25,12.25-29.17,19.83-47.86,19.83v-37.34c0-18.68,7.57-35.59,19.81-47.83
					c12.24-12.24,29.15-19.81,47.83-19.81H246.097z"/>
				<path style="opacity:0.5;fill:#1F1E21;" d="M246.1,269.872v9.75h-0.04c-18.68,0-35.59,7.57-47.83,19.81
					c-12.24,12.24-19.81,29.15-19.81,47.83v-9.75c0-18.68,7.57-35.59,19.81-47.83c12.24-12.24,29.15-19.81,47.83-19.81H246.1z"/>
			</g>
			<rect x="245.517" y="192.798" style="fill:#00B5E8;" width="0.49" height="0.05"/>
		</g>
	</g>
</g>
</svg>
